# xmcd
#
# Track frame offsets:
#	150
#	14888
#	29458
#	41515
#	61740
#	81310
#	101394
#	119116
#	141646
#	155465
#	172887
#	193212
#
# Disc length: 2691 seconds
# Revision: 0
# Processed by: cddbd v1.5.2PL0 Copyright (c) Steve Scherf et al.
# Submitted via: dBpowerAMP V12.0
#
DISCID=ab0a810c
DTITLE=Annie Oakley - Words We Mean
DYEAR=2018
DGENRE=Americana
TTITLE0=Pomp and Swell
TTITLE1=Recognition
TTITLE2=Brother
TTITLE3=Good Things
TTITLE4=Did You Dream
TTITLE5=Into the Light
TTITLE6=If I Were a Ghost
TTITLE7=Missed Connection
TTITLE8=Nothing to Say
TTITLE9=The Curse
TTITLE10=Words We Mean
TTITLE11=Sweet Time
EXTD=
EXTT0=
EXTT1=
EXTT2=
EXTT3=
EXTT4=
EXTT5=
EXTT6=
EXTT7=
EXTT8=
EXTT9=
EXTT10=
EXTT11=
PLAYORDER=
